# xmcd
#
# Track frame offsets: 
#        182
#        32595
#        52820
#        76232
#        91570
#        109107
#        123720
#        146757
#        168882
#        189032
#        208720
#        235670
#        253907
#        269820
#
# Disc length: 3626 seconds
#
# Revision: 2
# Processed by: cddbd v1.5.1PL2 Copyright (c) Steve Scherf et al.
# Submitted via: ExactAudioCopy v0.90b4
#
DISCID=b70e280e
DTITLE=Charles Brown - Honey Dripper
DYEAR=1996
DGENRE=Blues
TTITLE0=News All Over Town
TTITLE1=I Cried Last Night
TTITLE2=When You Leave Heaven
TTITLE3=There Is No Greater Love
TTITLE4=If I Had You
TTITLE5=Gee
TTITLE6=The Very Thought Of You
TTITLE7=You Won't Let Me Go
TTITLE8=The Honey Dripper
TTITLE9=They All Say I'm The Biggest Fool
TTITLE10=At Your Beck And Call
TTITLE11=Everyday I Have The Blues
TTITLE12=Precious Lord
TTITLE13=Charles Brown's Thank You
EXTD=
EXTT0=
EXTT1=
EXTT2=
EXTT3=
EXTT4=
EXTT5=
EXTT6=
EXTT7=
EXTT8=
EXTT9=
EXTT10=
EXTT11=
EXTT12=
EXTT13=
PLAYORDER=
